<?xml version="1.0" standalone="no"?>
<!DOCTYPE svg PUBLIC "-//W3C//DTD SVG 20010904//EN"
 "http://www.w3.org/TR/2001/REC-SVG-20010904/DTD/svg10.dtd">
<svg version="1.0" xmlns="http://www.w3.org/2000/svg"
 width="1280.000000pt" height="640.000000pt" viewBox="0 0 1280.000000 640.000000"
 preserveAspectRatio="xMidYMid meet">
<metadata>
Created by potrace 1.16, written by Peter Selinger 2001-2019
</metadata>
<g transform="translate(0.000000,640.000000) scale(0.100000,-0.100000)"
fill="#000000" stroke="none">
<path d="M0 6381 c0 -16 4 -19 21 -13 28 11 29 26 2 30 -18 3 -23 -2 -23 -17z"/>
<path d="M70 6390 c-19 -12 -2 -30 28 -29 15 0 21 3 14 6 -6 2 -10 8 -7 13 7
12 -20 20 -35 10z"/>
<path d="M186 6384 c-5 -13 -9 -14 -20 -5 -10 8 -16 9 -21 1 -3 -5 -1 -10 5
-10 6 0 8 -4 5 -10 -9 -14 1 -13 35 5 26 14 29 14 24 0 -4 -8 -1 -15 5 -15 6
0 11 5 11 10 0 6 6 10 13 10 7 0 22 6 33 14 13 10 14 14 4 13 -8 -2 -20 -6
-25 -9 -6 -4 -17 -3 -25 3 -22 13 -37 11 -44 -7z"/>
<path d="M321 6393 c-1 -6 4 -15 9 -18 6 -4 8 -10 5 -15 -3 -5 3 -14 12 -19
15 -9 14 -10 -9 -7 -24 4 -26 1 -25 -21 1 -15 8 -28 15 -29 7 -1 8 0 2 3 -17
8 -11 23 14 33 24 9 28 23 13 47 -6 9 -3 11 7 7 9 -3 16 -2 16 4 0 5 -9 12
-20 15 -11 3 -18 1 -14 -4 3 -5 1 -9 -5 -9 -5 0 -12 6 -14 13 -4 9 -6 9 -6 0z"/>
<path d="M420 6389 c0 -5 -4 -8 -9 -4 -5 3 -13 1 -16 -5 -4 -7 6 -9 30 -7 40
5 52 12 36 22 -6 3 -11 1 -11 -4 0 -6 -5 -11 -11 -11 -5 0 -7 5 -4 10 3 6 1
10 -4 10 -6 0 -11 -5 -11 -11z"/>
<path d="M486 6387 c3 -8 -3 -20 -12 -28 -12 -9 -15 -10 -10 -1 4 6 3 12 -3
12 -5 0 -12 -4 -16 -10 -3 -5 -12 -7 -20 -3 -10 3 -15 -1 -15 -12 0 -13 7 -15
35 -11 28 5 33 3 28 -9 -3 -10 -9 -12 -17 -6 -13 11 -51 -13 -42 -27 3 -5 -6
-22 -19 -36 -23 -25 -33 -56 -18 -56 3 0 15 8 26 18 11 9 17 11 13 5 -4 -7 -3
-13 2 -13 5 0 13 10 19 23 7 16 6 28 -5 45 -9 14 -10 22 -3 22 6 0 11 -7 11
-16 0 -8 5 -12 11 -9 5 4 20 -4 31 -17 16 -18 20 -19 15 -5 -4 10 -7 23 -7 28
0 5 -8 9 -17 9 -15 0 -16 2 -3 10 9 5 17 5 21 -1 3 -6 12 -3 20 7 12 16 12 17
-1 10 -8 -5 -3 3 13 16 15 14 27 29 27 33 0 4 8 14 18 21 15 12 15 13 -9 14
-16 0 -26 -5 -25 -12 0 -7 -3 -13 -9 -13 -5 0 -9 6 -7 13 2 6 -6 12 -17 12
-13 0 -18 -5 -15 -13z"/>
<path d="M591 6397 c2 -1 12 -9 22 -16 14 -12 17 -11 17 3 0 10 -8 16 -22 16
-12 0 -19 -1 -17 -3z"/>
<path d="M670 6390 c0 -5 7 -7 15 -4 8 4 15 8 15 10 0 2 -7 4 -15 4 -8 0 -15
-4 -15 -10z"/>
<path d="M733 6374 c-10 -21 -9 -27 7 -36 15 -10 16 -14 5 -25 -16 -15 -29
-18 -20 -4 3 5 1 13 -5 16 -6 4 -9 1 -8 -6 2 -6 -3 -14 -9 -16 -7 -3 -13 1
-13 8 0 7 -6 5 -14 -6 -11 -15 -11 -21 -1 -31 7 -7 10 -25 7 -39 -3 -16 -8
-22 -12 -16 -3 7 -15 9 -24 5 -11 -4 -21 -1 -27 7 -7 12 -10 12 -21 0 -10 -10
-10 -12 0 -7 6 4 12 2 12 -3 0 -6 -4 -11 -10 -11 -5 0 -10 -7 -10 -16 0 -8 -5
-12 -11 -8 -8 4 -8 0 0 -14 10 -19 8 -23 -18 -36 -15 -8 -31 -12 -35 -9 -3 4
-6 -1 -6 -11 0 -10 5 -14 11 -11 6 4 21 -3 34 -15 23 -22 23 -22 34 -2 6 11 7
22 3 26 -3 4 2 4 12 0 14 -5 17 -4 12 5 -4 6 -4 10 1 9 4 -1 17 3 29 9 25 14
47 2 38 -20 -3 -9 -10 -15 -14 -12 -4 3 -11 -2 -14 -10 -4 -13 -2 -13 14 -5
24 13 33 13 25 0 -4 -6 13 -9 45 -7 34 2 57 -1 65 -10 20 -19 24 -16 19 13 -4
22 -1 25 18 23 13 -2 29 1 37 5 10 6 12 5 7 -2 -4 -7 -2 -12 3 -12 6 0 11 -7
11 -15 0 -8 5 -15 11 -15 5 0 7 5 3 11 -3 6 -1 15 7 20 11 6 9 12 -6 29 -16
18 -16 20 -2 14 11 -4 17 -1 17 7 0 11 2 11 8 1 6 -9 13 0 22 28 7 23 18 44
23 47 6 3 7 1 3 -5 -4 -7 -3 -12 2 -12 5 0 12 9 15 21 3 12 10 18 15 15 6 -3
8 2 5 14 -3 12 0 20 6 20 7 0 9 5 6 10 -3 6 1 13 9 16 9 3 13 10 10 15 -3 5 2
6 10 3 9 -3 16 -1 16 5 0 6 -6 11 -12 11 -9 1 -8 5 2 13 20 16 14 47 -10 47
-19 0 -34 -25 -24 -41 3 -5 2 -9 -3 -8 -4 1 -19 -3 -33 -9 -22 -9 -22 -11 -5
-12 18 -1 17 -2 -5 -15 -14 -8 -19 -14 -11 -15 11 0 11 -3 1 -15 -11 -13 -15
-13 -21 -3 -7 10 -9 10 -9 1 0 -9 -7 -10 -23 -4 -17 7 -29 4 -48 -10 -13 -10
-31 -19 -39 -19 -13 0 -13 -1 0 -10 10 -6 20 -4 31 6 19 17 35 18 45 3 4 -7 1
-10 -7 -7 -8 3 -25 -3 -37 -13 -21 -16 -26 -17 -39 -4 -8 8 -19 15 -24 15 -6
0 -7 5 -4 10 4 6 3 10 -2 9 -4 -1 -17 -1 -28 1 l-20 1 20 9 c11 5 15 9 9 9 -5
1 -19 8 -30 17 -10 8 -14 13 -7 10 18 -10 9 23 -12 37 -14 11 -15 16 -5 22 8
5 19 -1 31 -16 l19 -24 0 28 c0 15 -6 27 -12 27 -9 0 -8 4 2 10 9 6 10 10 3
10 -6 0 -15 -5 -19 -11 -4 -8 -9 -8 -13 -1 -3 6 -11 0 -18 -14z m-3 -98 c0 -3
-4 -8 -10 -11 -5 -3 -10 -1 -10 4 0 6 5 11 10 11 6 0 10 -2 10 -4z m93 -51
c13 -11 17 -20 10 -22 -7 -3 -10 -10 -7 -18 6 -14 -32 -32 -43 -21 -4 3 1 6
11 6 9 0 15 4 11 10 -8 13 -33 1 -40 -19 -3 -10 -17 -18 -36 -19 -21 -2 -28 1
-23 9 4 8 3 9 -4 5 -20 -12 -33 3 -20 23 7 11 21 18 34 16 13 -1 22 3 21 9 -1
6 8 12 21 14 19 3 21 6 11 18 -18 22 26 13 54 -11z m-179 -23 c3 -5 -1 -9 -9
-9 -8 0 -15 4 -15 9 0 4 4 8 9 8 6 0 12 -4 15 -8z m-29 -32 c4 -6 11 -7 17 -4
6 4 8 2 5 -4 -8 -12 -47 -4 -47 9 0 12 17 11 25 -1z m130 -70 c-3 -5 -10 -10
-16 -10 -5 0 -9 5 -9 10 0 6 7 10 16 10 8 0 12 -4 9 -10z"/>
<path d="M698 6173 c7 -3 16 -2 19 1 4 3 -2 6 -13 5 -11 0 -14 -3 -6 -6z"/>
<path d="M810 6390 c0 -5 5 -10 11 -10 5 0 7 5 4 10 -3 6 -8 10 -11 10 -2 0
-4 -4 -4 -10z"/>
<path d="M1565 6328 c11 -134 12 -153 20 -201 4 -26 11 -47 16 -45 9 3 46 54
85 116 21 35 24 45 14 57 -9 10 -11 36 -8 80 l6 65 -69 0 -69 0 5 -72z"/>
<path d="M2880 6395 c0 -12 110 -224 122 -236 8 -8 24 -35 37 -61 12 -27 29
-49 37 -49 8 -1 23 -3 34 -4 11 -1 27 -3 35 -4 22 -2 18 -17 -11 -46 -17 -17
-23 -32 -19 -45 10 -31 -12 -24 -32 10 -9 17 -21 30 -25 30 -4 0 -26 27 -48
60 -22 33 -43 60 -46 60 -14 0 -44 -22 -44 -33 0 -7 20 -41 43 -77 24 -36 56
-89 71 -119 l26 -54 -26 -45 -26 -45 18 -59 c9 -32 21 -61 26 -64 4 -3 8 -31
8 -63 l0 -58 -197 -6 c-108 -4 -338 -7 -512 -7 -532 -1 -2063 -31 -2268 -46
l-83 -6 0 -1456 0 -1457 172 3 c102 2 208 9 258 19 47 8 159 17 250 20 91 2
183 4 205 6 40 2 57 -5 190 -77 37 -19 53 -21 205 -18 91 1 192 7 226 13 47 9
65 9 80 0 17 -11 16 -12 -7 -7 -22 5 -28 1 -33 -17 -10 -36 -7 -41 13 -23 10
10 42 19 70 22 28 2 72 16 97 29 39 21 61 25 128 25 45 0 97 -4 116 -9 19 -5
79 -21 132 -35 l96 -25 49 23 c53 25 114 42 186 51 30 4 45 10 41 17 -8 13 12
3 40 -21 18 -15 19 -15 12 9 -3 14 -9 38 -13 53 -7 36 -44 34 -53 -2 -4 -19
-7 -21 -17 -10 -6 8 -13 31 -14 51 -3 28 2 43 21 63 24 25 54 33 64 16 3 -5
24 -7 45 -4 l40 5 37 -81 c20 -44 39 -81 41 -81 3 0 17 8 31 19 55 38 223 131
238 131 14 0 15 20 10 163 -4 89 -13 367 -22 617 -8 250 -19 505 -24 565 -24
275 -11 302 147 292 148 -10 283 -48 398 -112 91 -51 138 -103 180 -203 34
-77 38 -98 43 -194 l5 -107 -37 -77 c-29 -60 -54 -94 -116 -156 -44 -43 -86
-78 -93 -78 -8 0 -8 -3 2 -9 10 -7 8 -9 -10 -9 -21 0 -156 -43 -180 -57 -5 -3
18 -39 51 -80 32 -41 86 -115 120 -165 34 -49 67 -90 73 -90 6 0 7 -3 4 -6 -4
-4 6 -23 21 -43 27 -34 69 -98 125 -187 14 -22 31 -47 39 -55 62 -67 77 -134
39 -172 -16 -17 -33 -22 -72 -22 -48 0 -54 3 -93 46 -22 25 -59 74 -80 110
-22 35 -63 96 -91 134 -28 39 -87 122 -130 185 -118 174 -116 174 -107 32 4
-64 7 -201 7 -304 l0 -187 -29 -30 c-48 -50 -131 -41 -159 17 -7 15 -12 35 -9
46 3 14 -8 10 -50 -20 -100 -72 -105 -78 -132 -146 -28 -71 -110 -201 -145
-230 -24 -20 -28 -13 -7 11 15 17 56 88 56 97 0 9 -105 -107 -128 -142 -4 -6
-15 -14 -26 -17 -10 -4 -16 -13 -13 -21 4 -11 -14 -22 -64 -41 -38 -15 -69
-30 -69 -35 0 -14 -82 -48 -130 -55 -35 -5 -62 -1 -120 20 -41 15 -80 31 -86
36 -6 5 -14 6 -17 2 -4 -3 -7 0 -7 7 0 7 -3 11 -6 8 -3 -3 -33 5 -67 18 -33
13 -68 24 -76 24 -9 0 -29 7 -46 16 -16 9 -62 18 -102 21 -47 4 -74 10 -77 19
-4 10 3 14 19 14 18 0 23 4 19 15 -4 8 -15 15 -26 15 -10 0 -17 -4 -14 -9 3
-5 -8 -11 -24 -13 -21 -3 -30 0 -30 9 0 8 -5 11 -12 7 -6 -4 -8 -3 -4 4 3 6 1
14 -5 17 -6 4 -19 26 -29 49 l-18 41 5 -45 c3 -25 12 -63 20 -85 27 -76 27
-75 2 -75 -13 0 -130 -13 -260 -29 -250 -30 -316 -29 -386 4 -43 21 -52 12
-41 -40 5 -27 17 -46 34 -56 26 -16 25 -16 -42 -23 -38 -4 -101 -8 -141 -9
-39 -1 -70 -4 -67 -8 2 -3 -29 -6 -69 -6 -41 0 -78 -2 -83 -6 -6 -3 -16 -2
-24 4 -8 5 -26 9 -39 9 -24 0 -24 0 -5 15 19 14 19 15 -4 21 -24 7 -29 20 -10
26 9 3 9 6 0 12 -7 4 -12 2 -12 -3 0 -6 -18 -11 -41 -11 -22 0 -38 -4 -35 -9
3 -5 -1 -11 -9 -15 -8 -3 -17 -1 -20 4 -10 17 -64 12 -61 -5 1 -8 6 -18 11
-22 4 -4 5 -2 1 5 -6 10 0 12 31 6 47 -8 55 -14 20 -14 -15 0 -27 -4 -27 -10
0 -18 -21 -10 -52 20 -30 31 -50 39 -45 19 4 -21 -31 -35 -53 -21 -29 18 -50
15 -44 -5 5 -14 4 -15 -4 -4 -6 8 -19 12 -30 9 -15 -4 -19 -2 -15 8 4 10 0 12
-11 8 -13 -5 -16 -18 -15 -60 l2 -54 36 6 c20 4 39 11 42 17 4 5 22 7 41 4 27
-4 38 -1 49 14 18 25 39 25 32 -1 -4 -14 0 -20 10 -20 10 0 13 6 10 21 -5 17
-2 20 13 15 10 -3 50 -8 87 -11 38 -3 73 -7 77 -10 5 -3 33 -8 62 -11 75 -7
74 -16 -2 -13 -36 1 -154 -6 -262 -16 l-198 -19 0 -324 0 -324 43 8 c23 5 425
7 892 6 633 -2 1011 2 1480 15 562 16 967 18 3753 16 l3124 -1 -109 67 c-163
101 -168 106 -193 175 -12 33 -28 70 -35 81 -30 49 -37 92 -20 130 8 21 15 58
15 84 0 48 7 65 28 72 8 3 -10 40 -53 109 -36 58 -78 130 -92 160 -43 90 -32
150 29 150 25 0 35 -10 77 -77 27 -43 62 -94 78 -113 16 -19 46 -65 66 -101
50 -92 56 -95 109 -68 48 25 104 27 126 5 13 -13 19 -13 42 -1 20 10 50 12
119 8 112 -7 131 -19 155 -100 24 -77 83 -239 101 -273 8 -15 40 -44 72 -66
32 -21 75 -53 96 -70 21 -17 59 -43 85 -57 26 -14 83 -44 126 -68 l80 -42 370
7 c204 4 529 13 721 21 200 9 599 15 933 15 l582 0 0 2115 0 2115 -981 -2
-981 -3 -22 -67 c-11 -37 -30 -78 -41 -90 -38 -44 -72 -93 -100 -145 -15 -29
-35 -53 -44 -53 -12 0 -11 3 5 16 18 14 18 15 -6 8 -14 -3 -33 -13 -43 -22 -9
-8 -20 -13 -23 -10 -8 9 37 58 53 58 7 0 13 7 13 15 0 8 5 15 11 15 5 0 8 4 4
9 -3 5 3 12 13 15 10 4 23 24 31 50 10 36 18 45 42 50 18 3 27 10 23 19 -2 7
4 21 15 31 24 22 45 81 35 97 -5 8 -3 9 6 4 10 -6 12 -3 8 13 -4 12 -2 22 3
22 5 0 9 6 9 13 0 6 -13 -3 -28 -21 -15 -18 -33 -32 -40 -32 -44 0 -263 -224
-246 -251 3 -5 -15 -33 -39 -62 -24 -28 -52 -67 -61 -85 -9 -18 -43 -63 -74
-100 -63 -74 -263 -328 -283 -360 -13 -20 -13 -20 -44 4 -39 29 -51 30 -65 4
-6 -12 -47 -68 -91 -126 -43 -58 -76 -110 -73 -116 4 -6 -3 -5 -15 1 -11 7
-21 18 -21 26 0 8 42 70 93 138 85 116 189 258 304 417 46 64 116 181 111 185
-2 1 -19 8 -38 15 -52 20 -99 58 -106 85 -4 15 2 41 16 69 16 35 19 49 11 65
-6 11 -11 38 -11 59 l0 40 -1632 6 c-898 3 -2313 9 -3144 12 l-1511 6 -32 95
c-18 52 -47 118 -66 146 -19 29 -35 58 -35 65 0 7 -12 34 -26 60 -45 79 -134
285 -119 272 8 -7 15 -20 15 -28 0 -13 4 -12 21 5 22 21 22 22 4 105 -15 73
-20 84 -38 84 -26 -1 -34 21 -10 28 15 5 18 14 15 41 l-4 34 -344 1 c-189 0
-344 -2 -344 -5z m314 -52 c-5 -5 -12 -12 -16 -18 -4 -6 -8 -2 -8 8 0 9 7 17
17 17 9 0 12 -3 7 -7z m-140 -242 c-7 -8 -14 6 -19 40 l-5 34 14 -35 c7 -19
12 -37 10 -39z m342 20 c6 -33 9 -52 13 -103 0 -10 8 -18 16 -18 8 0 15 -2 15
-4 0 -2 3 -12 7 -22 5 -12 3 -15 -6 -9 -15 9 -2 -20 29 -65 9 -14 15 -31 13
-38 -3 -7 9 -50 26 -97 17 -47 28 -91 25 -98 -3 -8 -16 -20 -30 -27 -18 -10
-24 -22 -24 -46 l0 -33 -30 17 c-16 9 -30 25 -30 34 0 37 -41 88 -81 99 -21 7
-39 18 -39 26 0 11 -18 18 -41 15 -4 -1 -12 12 -19 28 -17 40 -39 58 -50 41
-23 -38 -36 101 -13 144 6 11 13 38 17 60 4 22 12 56 18 75 6 19 12 40 14 47
2 8 29 12 83 11 l79 0 8 -37z m58 -37 c3 -8 2 -12 -4 -9 -6 3 -10 10 -10 16 0
14 7 11 14 -7z m80 -159 c3 -8 1 -15 -4 -15 -6 0 -10 7 -10 15 0 8 2 15 4 15
2 0 6 -7 10 -15z m116 -211 c18 -47 22 -86 8 -81 -7 2 -12 10 -10 16 1 6 -2
11 -7 11 -6 0 -9 8 -9 18 1 9 -2 27 -6 40 -10 31 12 29 24 -4z m-488 -51 c10
-9 18 -22 18 -30 0 -7 5 -22 12 -33 14 -22 3 -39 -14 -22 -7 7 -20 12 -30 12
-12 0 -17 7 -15 21 3 30 -21 36 -32 7 -10 -23 -10 -23 -10 5 -1 18 4 27 14 27
9 0 18 7 21 15 8 19 13 19 36 -2z m535 -25 c-3 -7 -5 -2 -5 12 0 14 2 19 5 13
2 -7 2 -19 0 -25z m-434 -97 c33 -48 33 -51 2 -51 -19 0 -25 -5 -25 -20 0 -31
-25 -74 -60 -104 -23 -19 -43 -26 -74 -26 -50 0 -66 13 -66 55 0 32 23 61 68
84 24 13 77 7 100 -11 6 -6 12 -7 12 -2 0 17 -15 33 -30 32 -34 -2 -51 3 -45
13 4 6 22 8 41 6 22 -3 34 -1 33 7 -3 25 1 56 9 56 4 0 19 -18 35 -39z m-56
13 c-3 -3 -12 -4 -19 -1 -8 3 -5 6 6 6 11 1 17 -2 13 -5z m304 -84 c28 -16 23
-25 -16 -27 -32 -1 -34 0 -25 18 12 22 15 23 41 9z m-63 -225 c-2 -5 -7 -9
-12 -7 -5 2 -6 -10 -3 -25 4 -23 -2 -35 -38 -70 -23 -24 -50 -43 -59 -43 -18
0 -22 15 -6 25 6 4 2 14 -11 24 -21 17 -21 17 17 17 22 0 43 -4 47 -10 4 -6 5
0 2 14 -7 31 29 93 51 88 8 -2 14 -7 12 -13z m273 -49 c-7 -8 -35 -19 -62 -25
-61 -13 -59 -13 -59 -1 0 6 15 10 33 10 17 1 46 7 62 15 39 17 40 18 26 1z
m-411 -71 c-7 -8 -17 -15 -22 -15 -11 0 14 29 26 30 5 0 3 -7 -4 -15z m7310
-33 c0 -5 -19 -18 -42 -28 -23 -10 -62 -36 -86 -57 -32 -27 -52 -37 -71 -35
-30 3 -44 39 -14 36 34 -3 54 2 48 11 -3 5 5 13 17 17 13 4 25 10 28 14 6 9
91 48 108 49 6 1 12 -3 12 -7z m-7271 -36 c9 -11 7 -15 -11 -20 -52 -13 -89
-1 -73 24 9 15 71 12 84 -4z m340 -77 c2 -19 -39 -13 -63 8 -16 13 -27 25 -25
26 65 35 63 35 76 3 6 -17 12 -34 12 -37z m-493 -4 c4 -10 13 -13 25 -10 11 4
28 3 39 0 20 -6 20 -7 -2 -24 -53 -41 -88 -33 -88 20 0 31 17 39 26 14z
m-1621 -459 c27 -13 60 -33 73 -45 26 -26 30 -41 5 -19 -43 36 -44 28 -2 -13
25 -25 59 -72 75 -104 26 -53 29 -71 29 -150 0 -76 -4 -99 -26 -146 -125 -267
-500 -259 -624 13 -21 45 -26 72 -26 135 0 122 41 211 128 278 23 18 39 36 35
40 -4 5 -2 5 5 2 13 -8 45 2 39 12 -2 3 19 7 46 8 27 2 57 8 66 13 25 16 120
3 177 -24z m120 -86 c4 -6 11 -7 17 -4 6 4 8 3 5 -3 -4 -5 6 -28 22 -49 70
-96 80 -215 27 -329 -33 -74 -42 -67 -15 11 26 71 28 178 5 243 -9 24 -32 66
-51 92 -19 27 -31 49 -26 49 6 0 13 -5 16 -10z m8203 -32 c-18 -24 -38 -49
-45 -55 -17 -19 -53 -16 -53 3 0 14 2 14 16 3 15 -12 21 -8 55 31 22 25 39 48
39 53 0 4 5 7 11 7 6 0 -4 -19 -23 -42z m-5282 -80 c52 -29 61 -89 18 -129
-25 -24 -29 -24 -240 -27 l-214 -3 0 -284 c0 -236 2 -286 15 -298 11 -11 44
-15 134 -16 129 -2 209 -19 242 -52 28 -28 25 -80 -7 -110 -28 -26 -12 -25
-268 -13 l-99 5 7 -58 c11 -97 36 -492 36 -583 0 -47 4 -90 8 -96 13 -20 68
-23 223 -13 85 5 178 11 207 13 46 3 56 0 83 -25 28 -27 31 -34 27 -74 -4 -29
-2 -42 5 -38 6 3 7 1 3 -6 -4 -6 -11 -9 -16 -6 -4 3 -23 -2 -42 -9 -36 -16
-259 -36 -390 -36 -42 0 -111 5 -153 11 -65 10 -80 16 -109 45 l-33 33 -7 143
c-13 278 -27 485 -43 643 -11 114 -16 270 -17 547 -1 378 -1 387 20 415 27 37
40 38 334 38 212 0 249 -2 276 -17z m2290 -3 c43 -18 59 -54 69 -150 3 -38 13
-115 21 -169 8 -55 19 -170 24 -255 6 -86 17 -202 26 -259 24 -153 15 -540
-13 -633 -50 -161 -120 -245 -269 -323 -99 -52 -253 -53 -378 -5 -77 31 -167
104 -181 149 -4 11 -11 17 -17 14 -6 -4 -8 -2 -5 4 4 5 -6 38 -23 73 -16 35
-34 86 -40 113 -37 180 -53 279 -71 435 -19 161 -20 210 -14 569 l7 392 26 20
c38 31 97 27 133 -9 35 -35 32 5 33 -521 1 -355 4 -409 24 -538 12 -79 24
-147 26 -150 2 -4 9 -42 15 -85 6 -43 25 -111 41 -150 52 -125 107 -167 225
-174 68 -4 72 -3 130 35 95 63 128 113 154 232 14 65 15 455 1 515 -5 22 -14
108 -20 190 -13 192 -15 206 -39 414 -20 160 -23 250 -11 249 3 -1 21 6 40 15
43 20 43 20 86 2z m-1403 -16 c11 -7 32 -22 46 -35 13 -13 29 -20 35 -17 6 3
8 3 4 -2 -4 -4 3 -26 16 -49 34 -59 40 -98 21 -135 -8 -17 -20 -31 -26 -31 -6
0 -8 -4 -5 -8 7 -12 -86 -7 -110 6 -12 6 -27 26 -34 44 -23 57 -38 68 -97 68
-47 0 -57 -4 -94 -37 -64 -58 -79 -97 -79 -205 0 -77 4 -99 21 -128 36 -58 80
-110 90 -105 5 4 6 0 3 -8 -3 -9 4 -21 15 -29 12 -8 18 -18 13 -23 -4 -4 1 -5
11 -2 10 4 16 3 13 -1 -8 -14 25 -54 40 -48 8 3 13 2 13 -2 -3 -21 3 -33 15
-30 8 2 14 0 13 -3 -2 -7 76 -101 148 -179 55 -59 112 -167 140 -265 15 -49
17 -83 11 -205 -8 -174 -7 -170 -18 -170 -4 0 -8 -6 -8 -13 0 -20 -79 -91
-137 -123 -28 -15 -50 -31 -48 -34 4 -7 2 -7 -126 -16 -78 -5 -101 -4 -127 10
-18 9 -38 14 -44 10 -7 -4 -8 -3 -4 4 4 7 -9 21 -31 35 -45 29 -93 73 -93 85
0 4 -9 18 -20 30 -12 12 -18 22 -15 22 3 0 -1 10 -9 23 -24 36 -106 287 -106
323 0 75 105 114 163 60 14 -13 31 -42 38 -64 7 -23 16 -39 22 -35 6 3 7 1 3
-6 -11 -16 29 -141 66 -209 32 -60 55 -85 102 -109 35 -18 79 -8 143 34 52 33
56 49 51 204 -3 108 -5 118 -41 189 -20 41 -55 95 -78 120 -22 25 -57 64 -76
87 -19 23 -38 41 -41 40 -4 -1 -8 3 -10 8 -5 20 -136 144 -145 138 -6 -3 -7
-1 -3 5 3 6 -23 51 -59 100 -36 49 -72 109 -81 133 -35 98 -7 336 47 395 11
11 16 24 12 29 -5 4 -3 5 3 2 13 -7 50 42 45 58 -1 6 1 7 5 3 4 -4 14 -3 21 4
8 6 40 24 71 39 52 25 67 28 170 29 67 0 122 -5 135 -11z m4238 -16 c88 -69
132 -157 107 -217 -7 -17 -12 -35 -10 -39 1 -5 -1 -6 -6 -3 -5 3 -24 0 -43 -5
-55 -17 -102 8 -131 68 l-23 48 -56 3 c-50 3 -60 0 -96 -30 -57 -46 -83 -105
-88 -202 -3 -59 0 -87 12 -110 30 -60 127 -182 203 -256 43 -41 99 -102 126
-135 26 -33 63 -76 81 -95 18 -19 36 -43 39 -53 3 -9 10 -14 16 -11 6 4 8 2 5
-4 -7 -10 47 -135 54 -128 9 9 14 -87 13 -234 -1 -149 -2 -157 -27 -196 -31
-50 -82 -92 -167 -135 -61 -32 -72 -34 -173 -36 -59 -1 -105 2 -102 7 3 5 -5
12 -17 15 -13 4 -33 16 -45 27 -12 11 -26 17 -33 13 -6 -3 -9 -3 -8 2 3 11
-63 79 -74 75 -5 -1 -7 2 -3 8 3 6 -8 35 -25 64 -48 84 -120 312 -109 348 12
42 47 67 94 67 64 0 80 -21 134 -181 57 -166 78 -205 129 -244 44 -34 89 -36
147 -6 76 38 80 48 80 196 0 123 -2 135 -29 196 -16 36 -55 97 -85 135 -80
101 -252 276 -264 268 -6 -3 -8 -2 -4 3 8 14 -62 106 -75 98 -7 -5 -8 -3 -3 5
4 7 -1 22 -13 34 -10 12 -32 49 -48 81 -25 53 -28 70 -28 160 0 116 28 222 71
268 16 16 22 31 17 40 -4 7 -4 10 1 6 4 -4 26 9 48 28 72 65 126 83 258 83
111 1 117 0 150 -26z m-2237 -7 c25 -10 37 -24 46 -51 9 -28 11 -218 9 -783
l-4 -747 308 0 c297 0 309 -1 323 -20 39 -53 18 -127 -40 -143 -17 -5 -186 -8
-376 -8 -268 1 -351 4 -371 14 -56 29 -55 3 -46 870 4 438 10 807 13 820 5 24
58 62 87 62 10 0 33 -6 51 -14z m1183 -21 c247 -3 390 -8 402 -15 27 -14 40
-67 27 -102 -18 -48 -64 -58 -260 -58 l-173 0 0 -242 c0 -134 -3 -474 -8 -756
-7 -511 -7 -514 -30 -539 -17 -21 -31 -26 -68 -26 -60 0 -94 23 -103 70 -6 34
-2 462 12 1178 3 165 1 296 -4 303 -6 9 -54 13 -178 15 -205 4 -224 11 -224
86 0 48 48 85 115 90 22 2 42 5 45 8 3 2 18 2 35 -2 16 -4 202 -9 412 -10z
m4053 -201 c17 -52 7 -51 -11 1 -9 25 -13 42 -8 40 4 -3 13 -21 19 -41z
m-10944 -146 c59 -91 58 -131 -4 -166 -53 -29 -63 -15 -11 16 39 23 40 25 23
43 -17 19 -17 20 0 13 16 -6 17 -3 11 17 -4 13 -21 51 -37 84 -35 70 -30 68
18 -7z m-76 5 c21 -35 21 -37 2 -20 -17 16 -37 57 -27 57 2 0 13 -17 25 -37z
m9435 -28 c38 -8 90 -15 114 -15 54 0 185 -24 316 -58 145 -38 276 -37 408 2
54 16 100 26 103 23 10 -10 145 -339 151 -368 l6 -29 -51 0 c-28 0 -66 -6 -84
-14 -45 -19 -240 -64 -313 -71 -33 -4 -107 -21 -165 -39 -58 -19 -143 -39
-190 -46 -68 -10 -99 -20 -155 -53 -38 -22 -79 -48 -90 -58 -11 -9 -49 -36
-84 -60 -35 -23 -71 -55 -80 -70 -25 -44 -59 -46 -74 -5 -11 29 19 119 47 144
40 34 103 72 110 65 3 -4 6 -1 6 5 0 6 6 9 13 6 8 -3 33 6 57 20 29 16 39 27
30 30 -48 15 -296 38 -485 44 -177 7 -226 12 -252 25 -35 18 -45 55 -20 74 12
10 360 33 495 33 47 0 72 4 72 11 0 9 -47 10 -177 5 -263 -10 -450 -9 -473 4
-24 13 -26 52 -5 74 9 8 30 17 48 20 109 17 305 36 364 36 96 0 223 11 223 20
0 13 -199 30 -355 30 -142 0 -157 2 -175 20 -24 24 -25 32 -2 58 16 20 32 21
222 28 130 4 241 2 303 -5 59 -7 105 -8 114 -2 13 7 9 10 -18 16 -104 23 -208
31 -297 22 -51 -6 -94 -8 -97 -5 -3 2 -6 15 -7 27 -2 19 4 26 37 38 95 34 291
43 410 18z m1528 -22 c-7 -2 -19 -2 -25 0 -7 3 -2 5 12 5 14 0 19 -2 13 -5z
m-308 -23 c-4 -6 -10 -8 -15 -5 -5 3 -11 1 -15 -5 -4 -6 -11 -7 -18 -3 -7 4
-4 9 9 14 28 11 46 11 39 -1z m15 -41 c0 -6 -4 -7 -10 -4 -5 3 -10 11 -10 16
0 6 5 7 10 4 6 -3 10 -11 10 -16z m-10615 -8 c-3 -6 -11 -8 -17 -5 -6 4 -5 9
3 15 16 10 23 4 14 -10z m10585 -2 c0 -6 -4 -7 -10 -4 -5 3 -10 11 -10 16 0 6
5 7 10 4 6 -3 10 -11 10 -16z m-10613 -15 c-3 -3 -12 -4 -19 -1 -8 3 -5 6 6 6
11 1 17 -2 13 -5z m2810 -190 c-3 -3 -12 -4 -19 -1 -8 3 -5 6 6 6 11 1 17 -2
13 -5z m-1077 -550 c0 -8 -19 -13 -24 -6 -3 5 1 9 9 9 8 0 15 -2 15 -3z m-935
-324 c3 -6 -1 -7 -9 -4 -18 7 -21 14 -7 14 6 0 13 -4 16 -10z m2800 -8 c-3 -3
-11 0 -18 7 -9 10 -8 11 6 5 10 -3 15 -9 12 -12z m330 -121 c3 -5 2 -12 -3
-15 -5 -3 -9 1 -9 9 0 17 3 19 12 6z m-4688 -607 c-3 -3 -12 -4 -19 -1 -8 3
-5 6 6 6 11 1 17 -2 13 -5z m-832 -84 c3 -5 -3 -10 -15 -10 -12 0 -18 5 -15
10 3 6 10 10 15 10 5 0 12 -4 15 -10z m-85 -40 c0 -5 -7 -10 -15 -10 -8 0 -15
5 -15 10 0 6 7 10 15 10 8 0 15 -4 15 -10z"/>
<path d="M3282 6094 c-12 -8 -22 -22 -22 -30 0 -18 14 -18 29 0 9 11 9 15 -1
19 -8 4 -7 6 5 6 9 1 17 6 17 11 0 13 -2 13 -28 -6z"/>
<path d="M3397 5846 c-4 -9 -2 -18 4 -21 5 -4 7 -11 4 -16 -10 -14 5 -49 20
-49 7 0 16 -6 18 -12 11 -28 5 39 -7 71 -14 39 -30 50 -39 27z"/>
<path d="M1372 4447 c-45 -14 -118 -81 -144 -130 -26 -52 -34 -142 -18 -193
27 -82 117 -174 170 -174 10 0 21 -4 24 -9 3 -5 30 -12 59 -15 44 -6 62 -3
109 19 100 46 149 123 150 237 1 117 -64 221 -167 264 -39 16 -134 17 -183 1z"/>
<path d="M5884 6378 c1 -13 6 -26 12 -30 7 -4 15 -24 18 -43 4 -20 14 -39 22
-42 7 -3 14 -13 14 -22 0 -14 2 -14 10 -1 27 42 -14 160 -56 160 -15 0 -20 -6
-20 -22z"/>
<path d="M6010 6390 c0 -5 3 -9 8 -9 4 1 12 1 18 0 13 -1 39 -104 31 -124 -3
-9 4 -23 19 -34 13 -10 22 -23 20 -30 -7 -18 40 -70 69 -75 34 -7 33 13 -4 71
-15 25 -43 83 -62 128 -33 80 -35 83 -66 83 -18 0 -33 -4 -33 -10z"/>
<path d="M6215 6369 c4 -17 20 -63 36 -102 16 -38 29 -79 29 -91 0 -18 2 -17
15 8 8 15 12 32 9 37 -3 5 1 9 8 9 9 0 9 3 2 8 -6 4 -16 17 -22 28 -10 19 -8
23 18 34 34 14 32 28 -2 25 -30 -3 -45 10 -53 46 -5 20 -13 29 -27 29 -17 0
-19 -4 -13 -31z"/>
<path d="M7995 6373 c37 -59 129 -121 161 -109 8 3 12 2 9 -4 -9 -14 141 -13
168 1 12 7 26 18 30 25 4 8 14 14 21 14 7 0 24 16 37 35 13 19 27 35 32 35 4
0 7 7 7 15 0 13 -33 15 -241 15 l-241 0 17 -27z"/>
<path d="M10747 6364 c-16 -19 -35 -34 -42 -34 -8 0 -11 -7 -8 -19 3 -12 11
-17 19 -14 9 3 14 -1 14 -12 0 -11 -6 -15 -17 -11 -23 7 -38 -3 -45 -31 -8
-30 17 -34 84 -13 l56 17 -4 -23 c-5 -29 16 -32 23 -4 3 11 9 17 15 14 5 -3 6
-15 3 -25 -4 -11 -1 -27 7 -36 10 -13 10 -17 1 -20 -7 -3 -13 -10 -13 -16 0
-7 -25 -23 -55 -37 -56 -25 -69 -44 -37 -54 9 -3 23 -19 30 -36 8 -17 18 -28
22 -25 5 3 20 0 34 -6 29 -14 34 -48 14 -96 -16 -39 -18 -53 -7 -53 5 0 9 -4
9 -9 0 -5 -8 -7 -18 -5 -11 4 -23 -5 -35 -25 -10 -17 -15 -31 -10 -31 4 0 1
-6 -7 -13 -26 -20 -23 -72 5 -113 14 -20 25 -41 25 -46 0 -5 5 -6 10 -3 6 3
10 -2 10 -12 0 -34 29 22 41 79 6 29 16 59 21 65 6 7 8 20 4 28 -3 9 -2 13 4
10 6 -3 10 2 10 12 0 10 26 72 59 138 53 108 211 474 211 489 0 12 -176 6
-188 -6 -8 -8 -15 -8 -27 2 -25 21 -65 -12 -60 -49 2 -22 0 -28 -10 -25 -8 3
-11 13 -8 22 4 10 -1 8 -15 -6 -12 -12 -33 -22 -46 -22 -13 0 -27 -6 -29 -12
-4 -10 -6 -10 -6 0 -1 7 6 21 15 30 15 14 14 16 -7 25 -23 8 -23 9 -5 19 15 8
21 8 24 0 5 -15 24 -15 57 0 41 19 29 28 -37 27 -59 0 -65 -3 -91 -35z m98
-84 c3 -5 -1 -10 -10 -10 -9 0 -13 5 -10 10 3 6 8 10 10 10 2 0 7 -4 10 -10z
m-135 -24 c0 -3 -4 -8 -10 -11 -5 -3 -10 -1 -10 4 0 6 5 11 10 11 6 0 10 -2
10 -4z m185 -56 c-10 -11 -21 -17 -24 -14 -3 3 3 12 13 20 28 20 32 17 11 -6z
m-42 -585 c-3 -9 -8 -14 -10 -11 -3 3 -2 9 2 15 9 16 15 13 8 -4z"/>
<path d="M12545 6389 c22 -6 84 -16 139 -25 54 -8 102 -17 107 -20 5 -3 9 9 9
25 l0 31 -147 -1 c-116 -1 -139 -3 -108 -10z"/>
<path d="M282 6365 c-13 -15 -33 -25 -49 -26 -27 -1 -27 -1 5 -10 17 -5 32
-13 32 -18 0 -4 7 -8 15 -8 10 0 12 4 5 12 -13 15 -3 43 16 47 8 2 10 8 6 16
-6 9 -14 6 -30 -13z"/>
<path d="M1016 6381 c-4 -7 -5 -15 -2 -18 9 -9 19 4 14 18 -4 11 -6 11 -12 0z"/>
<path d="M590 6360 c0 -5 5 -10 11 -10 5 0 7 5 4 10 -3 6 -8 10 -11 10 -2 0
-4 -4 -4 -10z"/>
<path d="M971 6348 c-14 -23 -14 -23 8 -4 22 20 25 26 13 26 -4 0 -13 -10 -21
-22z"/>
<path d="M35 6350 c-3 -6 1 -7 9 -4 18 7 21 14 7 14 -6 0 -13 -4 -16 -10z"/>
<path d="M1320 6350 c0 -5 5 -10 11 -10 5 0 7 5 4 10 -3 6 -8 10 -11 10 -2 0
-4 -4 -4 -10z"/>
<path d="M649 6342 c11 -8 11 -10 0 -14 -9 -3 -8 -6 5 -11 13 -5 17 -3 14 10
-2 9 -10 18 -18 20 -12 4 -12 3 -1 -5z"/>
<path d="M1527 6331 c-4 -17 -3 -21 5 -13 5 5 8 16 6 23 -3 8 -7 3 -11 -10z"/>
<path d="M8483 6284 c-34 -35 -59 -64 -57 -64 9 0 106 94 115 112 13 25 12 23
-58 -48z"/>
<path d="M1221 6324 c0 -11 3 -14 6 -6 3 7 2 16 -1 19 -3 4 -6 -2 -5 -13z"/>
<path d="M95 6320 c-3 -5 -1 -10 4 -10 6 0 11 5 11 10 0 6 -2 10 -4 10 -3 0
-8 -4 -11 -10z"/>
<path d="M587 6318 c7 -8 10 -18 6 -21 -3 -4 -1 -7 6 -7 17 0 10 32 -9 38 -12
4 -13 3 -3 -10z"/>
<path d="M40 6309 c0 -6 -9 -8 -20 -4 -11 4 -20 2 -20 -4 0 -16 36 -13 50 4 9
10 9 15 1 15 -6 0 -11 -5 -11 -11z"/>
<path d="M195 6311 c-6 -11 13 -26 22 -17 4 3 1 6 -6 6 -7 0 -9 5 -6 10 3 6 4
10 1 10 -3 0 -7 -4 -11 -9z"/>
<path d="M232 6284 c0 -26 4 -34 14 -30 20 8 17 -11 -3 -23 -10 -6 -13 -10 -8
-10 6 -1 21 9 35 20 14 11 19 18 13 14 -8 -4 -13 0 -13 9 0 9 -4 16 -10 16 -5
0 -10 9 -10 20 0 11 -4 20 -9 20 -5 0 -9 -16 -9 -36z"/>
<path d="M1280 6306 c0 -2 7 -6 15 -10 8 -3 15 -1 15 4 0 6 -7 10 -15 10 -8 0
-15 -2 -15 -4z"/>
<path d="M1420 6299 c0 -5 5 -7 10 -4 6 3 10 8 10 11 0 2 -4 4 -10 4 -5 0 -10
-5 -10 -11z"/>
<path d="M60 6296 c0 -2 9 -6 20 -9 11 -3 18 -1 14 4 -5 9 -34 13 -34 5z"/>
<path d="M374 6270 c0 -11 4 -20 8 -20 4 0 8 9 8 20 0 11 -4 20 -8 20 -4 0 -8
-9 -8 -20z"/>
<path d="M552 6264 c-12 -8 -20 -19 -17 -24 9 -14 -42 -63 -57 -54 -7 4 -10 3
-5 -1 11 -12 -23 -45 -47 -45 -17 0 -18 -2 -6 -10 8 -5 12 -11 9 -15 -11 -10
-58 35 -52 51 3 8 -2 23 -11 33 -9 10 -13 21 -9 24 3 4 4 7 0 7 -14 0 -55 -54
-50 -67 4 -9 0 -11 -11 -7 -9 3 -13 10 -10 15 3 5 0 9 -6 9 -6 0 -8 5 -5 10 4
6 -5 10 -20 10 -14 0 -28 6 -31 14 -8 20 -34 8 -31 -12 5 -31 17 -40 45 -36
19 3 31 -1 40 -16 10 -16 10 -20 -1 -20 -7 0 -19 6 -26 13 -11 10 -13 9 -9 -3
3 -8 17 -16 31 -18 15 -2 32 -12 37 -22 6 -11 17 -17 24 -14 8 3 30 1 49 -4
25 -7 39 -6 48 2 9 8 10 8 5 -2 -6 -9 -1 -11 17 -8 14 2 28 1 32 -2 3 -4 20
-7 36 -8 24 -1 27 1 18 12 -6 8 -15 11 -20 8 -5 -3 -9 1 -9 8 0 11 -2 11 -9 0
-6 -10 -12 -5 -21 18 -13 32 -11 40 13 44 8 1 22 10 32 20 14 14 20 15 26 4 6
-9 9 -9 9 -1 0 6 -4 15 -10 18 -12 8 10 45 27 45 18 0 24 17 10 29 -10 8 -19
6 -35 -5z m-303 -81 c2 -2 -3 -3 -11 -3 -9 0 -19 7 -22 16 -6 15 -4 15 11 3
10 -7 20 -15 22 -16z m129 -60 c2 -8 -6 -13 -22 -13 -28 0 -43 15 -24 23 20 8
41 3 46 -10z"/>
<path d="M1205 6270 c-3 -5 -1 -10 4 -10 6 0 11 5 11 10 0 6 -2 10 -4 10 -3 0
-8 -4 -11 -10z"/>
<path d="M0 6258 c0 -8 17 -11 55 -10 12 1 4 -5 -17 -15 -36 -15 -51 -33 -28
-33 6 0 10 -11 10 -25 0 -14 -4 -25 -10 -25 -5 0 -10 -18 -10 -41 l0 -40 80 2
c61 2 79 6 76 16 -3 7 -1 13 5 13 6 0 7 5 3 12 -5 7 -11 5 -21 -7 -12 -17 -13
-17 -13 9 0 15 4 25 9 21 5 -3 12 -1 15 4 4 5 2 12 -4 16 -20 12 -10 26 10 15
11 -6 20 -9 21 -8 6 25 5 39 -3 45 -7 4 -8 1 -4 -6 5 -8 3 -12 -5 -10 -33 4
-48 -3 -66 -28 -22 -34 -43 -41 -36 -12 3 11 17 25 32 31 15 6 21 12 13 15 -6
3 -10 9 -6 14 9 15 -13 10 -30 -7 -9 -8 -14 -20 -11 -25 10 -15 -11 -10 -24 5
-10 12 -8 17 11 27 13 7 29 19 35 28 11 14 14 14 22 1 9 -13 12 -13 23 -1 8 8
8 11 1 7 -6 -3 -13 -2 -15 3 -4 11 -118 20 -118 9z m37 -130 c-3 -8 -6 -5 -6
6 -1 11 2 17 5 13 3 -3 4 -12 1 -19z"/>
<path d="M150 6261 c0 -6 4 -13 10 -16 6 -3 7 1 4 9 -7 18 -14 21 -14 7z"/>
<path d="M200 6245 c-11 -13 -10 -14 4 -9 9 3 16 10 16 15 0 13 -6 11 -20 -6z"/>
<path d="M1170 6247 c8 -9 24 -17 35 -19 11 -2 23 -7 28 -13 4 -6 11 -5 16 5
13 19 -8 33 -26 18 -9 -8 -13 -7 -13 2 0 8 -3 10 -6 7 -4 -3 -16 -1 -28 5 -19
9 -19 9 -6 -5z"/>
<path d="M1338 6243 c-19 -5 -24 -18 -10 -27 5 -3 16 4 25 15 17 19 16 20 -15
12z"/>
<path d="M6183 6233 c9 -2 23 -2 30 0 6 3 -1 5 -18 5 -16 0 -22 -2 -12 -5z"/>
<path d="M1300 6219 c0 -5 -4 -8 -9 -5 -5 4 -7 -3 -4 -14 4 -16 9 -18 19 -9 7
6 10 17 7 25 -6 17 -13 18 -13 3z"/>
<path d="M1500 6220 c-13 -8 -12 -10 3 -10 9 0 17 5 17 10 0 12 -1 12 -20 0z"/>
<path d="M1150 6211 c0 -5 5 -13 10 -16 6 -3 10 -2 10 4 0 5 -4 13 -10 16 -5
3 -10 2 -10 -4z"/>
<path d="M1437 6206 c-3 -7 -4 -25 -3 -40 2 -14 -3 -31 -10 -37 -18 -15 -18
-39 0 -39 9 0 13 7 11 19 -3 17 0 18 18 11 12 -4 21 -13 20 -19 -4 -16 6 -14
25 6 13 12 13 15 2 11 -8 -2 -20 0 -26 6 -9 8 -8 16 4 30 10 11 12 16 5 13 -6
-4 -14 -1 -16 5 -3 8 -6 6 -6 -5 -1 -10 -5 -16 -10 -13 -5 4 -7 20 -5 36 5 31
0 40 -9 16z"/>
<path d="M290 6194 c0 -14 3 -14 15 -4 8 7 15 14 15 16 0 2 -7 4 -15 4 -8 0
-15 -7 -15 -16z"/>
<path d="M1070 6199 c0 -5 5 -7 10 -4 6 3 10 8 10 11 0 2 -4 4 -10 4 -5 0 -10
-5 -10 -11z"/>
<path d="M1104 6197 c-7 -8 -6 -16 5 -29 17 -19 41 -24 41 -8 0 6 5 10 10 10
6 0 10 -9 10 -20 0 -14 5 -18 17 -13 11 5 13 8 4 11 -9 3 -8 10 5 30 16 24 16
25 -2 17 -11 -4 -27 -8 -36 -9 -10 0 -18 -4 -18 -8 0 -4 -5 -8 -11 -8 -6 0 -9
9 -6 20 6 22 -2 25 -19 7z"/>
<path d="M1040 6170 c0 -5 5 -10 11 -10 5 0 7 5 4 10 -3 6 -8 10 -11 10 -2 0
-4 -4 -4 -10z"/>
<path d="M1370 6170 c-13 -8 -12 -10 3 -10 9 0 17 5 17 10 0 12 -1 12 -20 0z"/>
<path d="M1206 6157 c3 -8 18 -14 33 -14 21 0 26 3 18 12 -15 16 -57 18 -51 2z"/>
<path d="M1541 6160 c-7 -4 -12 -13 -10 -19 3 -8 10 -8 23 2 21 15 9 31 -13
17z"/>
<path d="M1374 6136 c-3 -8 -4 -23 -2 -32 3 -16 4 -16 18 1 12 15 12 17 1 10
-11 -6 -13 -3 -9 13 7 25 0 30 -8 8z"/>
<path d="M1087 6133 c-13 -13 -7 -25 7 -14 9 8 16 8 20 2 4 -5 -1 -14 -10 -19
-15 -8 -15 -10 0 -15 10 -4 16 -1 16 8 0 8 6 15 14 15 8 0 17 7 20 16 6 15 4
15 -10 3 -13 -11 -18 -11 -21 -1 -5 13 -25 16 -36 5z"/>
<path d="M210 6120 c0 -5 6 -9 12 -7 7 1 14 -8 16 -20 4 -28 10 -28 42 -2 l25
21 -26 -6 c-17 -4 -31 0 -39 9 -14 17 -30 20 -30 5z"/>
<path d="M1258 6108 c7 -7 16 -7 28 0 14 8 13 10 -10 10 -18 0 -24 -4 -18 -10z"/>
<path d="M1168 6103 c7 -3 16 -2 19 1 4 3 -2 6 -13 5 -11 0 -14 -3 -6 -6z"/>
<path d="M180 6090 c-13 -8 -12 -10 3 -10 9 0 17 5 17 10 0 12 -1 12 -20 0z"/>
<path d="M618 6093 c7 -3 16 -2 19 1 4 3 -2 6 -13 5 -11 0 -14 -3 -6 -6z"/>
<path d="M1010 6090 c0 -6 7 -10 15 -10 8 0 15 2 15 4 0 2 -7 6 -15 10 -8 3
-15 1 -15 -4z"/>
<path d="M970 6080 c0 -6 7 -10 15 -10 8 0 15 2 15 4 0 2 -7 6 -15 10 -8 3
-15 1 -15 -4z"/>
<path d="M10211 5523 c-11 -24 -32 -123 -26 -123 9 0 60 91 65 117 7 28 5 33
-9 33 -10 0 -23 -12 -30 -27z"/>
<path d="M10580 5430 c-8 -5 -11 -12 -8 -16 4 -3 14 1 23 10 18 17 9 21 -15 6z"/>
<path d="M10391 5420 c-13 -3 -28 -12 -32 -20 -4 -8 -33 -61 -63 -118 -31 -56
-56 -106 -56 -111 0 -5 6 -11 14 -14 10 -4 33 24 74 91 69 113 94 160 90 171
-2 4 -14 5 -27 1z"/>
<path d="M10539 5403 c-13 -16 -12 -17 4 -4 9 7 17 15 17 17 0 8 -8 3 -21 -13z"/>
<path d="M10350 5070 c8 -5 20 -10 25 -10 6 0 3 5 -5 10 -8 5 -19 10 -25 10
-5 0 -3 -5 5 -10z"/>
<path d="M9932 4635 c-7 -8 -10 -15 -7 -15 4 0 0 -6 -7 -14 -34 -36 -162 -216
-154 -216 2 0 44 53 92 118 48 64 91 123 97 130 13 17 -5 14 -21 -3z"/>
<path d="M3104 4108 c3 -13 11 -160 17 -328 6 -168 13 -307 14 -308 2 -2 43 9
91 25 89 28 151 72 137 96 -3 7 -3 9 2 5 4 -4 25 6 46 22 67 54 89 179 49 294
-25 75 -51 109 -104 140 -55 32 -185 76 -226 76 -29 0 -32 -3 -26 -22z"/>
<path d="M3015 2687 c-11 -9 -14 -16 -7 -21 15 -9 42 4 42 20 0 18 -11 18 -35
1z"/>
<path d="M2374 2385 c-3 -14 -14 -26 -23 -26 -44 -4 -135 -24 -151 -34 -11 -7
-10 -10 6 -17 14 -6 12 -7 -8 -3 -16 3 -28 1 -28 -5 0 -5 -9 -10 -20 -10 -32
0 -23 -17 10 -18 20 0 28 3 24 10 -4 6 -2 8 4 4 13 -8 142 21 160 37 10 8 15
8 21 -1 10 -17 95 24 87 43 -3 8 0 16 7 19 7 3 2 3 -11 0 -13 -3 -33 1 -47 10
-24 16 -25 15 -31 -9z m40 -40 c-10 -8 -23 -14 -29 -14 -5 0 -1 6 9 14 11 8
24 15 30 15 5 0 1 -7 -10 -15z"/>
<path d="M2065 2250 c-3 -5 -1 -10 4 -10 6 0 11 5 11 10 0 6 -2 10 -4 10 -3 0
-8 -4 -11 -10z"/>
<path d="M2148 2252 c-5 -14 -163 -102 -182 -102 -16 0 -15 -3 4 -30 12 -16
19 -34 16 -39 -3 -5 1 -11 9 -15 8 -3 17 0 21 6 4 7 3 8 -4 4 -7 -4 -12 -2
-12 3 0 14 23 14 36 1 17 -17 44 0 44 29 0 21 11 32 51 56 66 39 73 48 59 74
-11 21 -35 28 -42 13z"/>
<path d="M2455 2209 c-38 -28 -81 -58 -95 -67 -14 -9 -62 -43 -107 -74 -45
-32 -85 -58 -89 -58 -4 0 -21 16 -38 35 -29 32 -32 34 -51 20 -18 -15 -19 -18
-4 -43 12 -22 22 -27 52 -26 20 0 37 -3 37 -6 0 -4 26 -10 57 -13 57 -6 99 6
87 24 -4 6 -11 6 -19 -1 -14 -12 -62 -4 -50 8 4 4 10 7 13 8 53 9 72 18 72 37
0 25 129 154 162 162 13 3 29 15 36 26 7 10 11 19 10 18 -2 0 -34 -23 -73 -50z"/>
<path d="M640 2156 c0 -2 7 -9 15 -16 9 -7 15 -8 15 -2 0 5 -7 12 -15 16 -8 3
-15 4 -15 2z"/>
<path d="M1713 2133 c9 -2 25 -2 35 0 9 3 1 5 -18 5 -19 0 -27 -2 -17 -5z"/>
<path d="M717 2085 c27 -25 32 -35 20 -35 -9 0 -17 -4 -17 -10 0 -5 5 -10 10
-10 6 0 10 -7 10 -15 0 -8 6 -15 13 -16 34 -3 -45 -17 -93 -17 l-55 1 45 6 45
6 -42 8 c-38 6 -121 -5 -145 -19 -5 -4 0 -13 12 -21 18 -13 37 -13 138 -3 64
7 127 13 140 13 25 -1 30 12 8 20 -9 4 -12 14 -9 28 5 17 3 20 -8 14 -11 -6
-11 -5 -2 5 9 10 6 17 -15 35 -64 52 -109 61 -55 10z"/>
<path d="M1093 2086 c21 -8 55 -16 75 -19 20 -3 29 -3 20 -1 -10 3 -15 11 -11
20 6 17 -8 19 -24 3 -8 -8 -17 -8 -31 0 -11 6 -31 11 -44 11 -17 -1 -14 -4 15
-14z"/>
<path d="M1308 2093 c6 -2 18 -2 25 0 6 3 1 5 -13 5 -14 0 -19 -2 -12 -5z"/>
<path d="M1060 2061 c-19 -3 -36 -11 -37 -18 -2 -7 4 -10 12 -7 9 4 21 1 28
-4 8 -7 18 -7 27 -2 12 8 11 10 -4 10 -20 0 -20 0 0 15 10 8 17 14 14 13 -3 0
-21 -4 -40 -7z"/>
<path d="M445 1978 c1 -15 9 -24 23 -26 18 -3 20 -7 12 -22 -10 -19 -3 -21 33
-5 26 11 21 22 -14 29 -19 4 -33 13 -36 26 -7 27 -20 25 -18 -2z"/>
<path d="M710 1940 c-30 -4 -67 -5 -82 -2 -18 3 -28 0 -28 -7 0 -8 23 -11 74
-10 40 1 79 -1 85 -5 16 -10 31 2 24 19 -3 8 -8 14 -12 14 -3 -1 -31 -5 -61
-9z"/>
<path d="M535 1920 c-3 -6 1 -7 9 -4 18 7 21 14 7 14 -6 0 -13 -4 -16 -10z"/>
<path d="M58 1813 c7 -3 16 -2 19 1 4 3 -2 6 -13 5 -11 0 -14 -3 -6 -6z"/>
<path d="M9031 1668 c-1 -12 31 -89 35 -85 3 2 -4 24 -15 48 -11 24 -20 41
-20 37z"/>
<path d="M11200 702 c0 -6 9 -14 20 -17 14 -4 19 -13 16 -23 -3 -9 -10 -35
-15 -57 -14 -57 -56 -166 -67 -173 -6 -4 -22 -28 -37 -54 -15 -26 -33 -51 -41
-55 -22 -13 -30 -53 -12 -53 9 0 16 -9 16 -21 0 -13 -4 -18 -12 -13 -7 4 -8 3
-4 -4 4 -6 -13 -41 -36 -77 -32 -48 -48 -64 -63 -62 -22 2 -31 -27 -21 -69 l6
-24 778 0 c675 1 775 3 758 15 -10 8 -42 19 -70 26 -45 10 -53 16 -69 50 -27
56 -77 91 -140 97 -37 3 -61 12 -82 31 -17 14 -47 35 -67 46 -33 17 -42 18
-73 6 -32 -11 -94 -9 -116 5 -5 3 -9 11 -9 18 0 23 -46 56 -91 64 -28 5 -68
26 -108 55 -35 26 -74 50 -87 53 -13 3 -24 9 -24 13 0 4 -18 17 -39 29 -22 12
-52 35 -68 50 -17 15 -43 34 -59 42 -16 8 -52 33 -79 57 -50 41 -105 65 -105
45z"/>
<path d="M6870 668 c0 -17 -41 -48 -65 -48 -11 0 -15 -12 -15 -51 0 -29 -5
-91 -12 -139 -10 -78 -9 -94 10 -166 11 -43 24 -104 28 -134 6 -47 12 -60 48
-92 l41 -38 342 0 343 0 0 23 c-1 12 -7 33 -15 47 -8 14 -15 48 -16 75 -1 28
-3 42 -6 32 -9 -36 -24 -15 -22 31 2 26 -1 57 -5 70 -4 14 -3 22 3 22 19 0 12
18 -19 51 -16 18 -46 60 -66 94 -20 33 -44 66 -52 73 -25 20 -68 14 -101 -14
l-31 -26 -26 21 c-33 26 -79 27 -106 1 -19 -17 -23 -18 -42 -5 -29 21 -63 19
-96 -5 -28 -20 -29 -20 -39 -2 -6 11 -19 52 -30 93 -20 71 -51 124 -51 87z
m475 -176 c-3 -3 -11 0 -18 7 -9 10 -8 11 6 5 10 -3 15 -9 12 -12z m-190 -12
c3 -5 1 -10 -4 -10 -6 0 -11 5 -11 10 0 6 2 10 4 10 3 0 8 -4 11 -10z m-75
-68 c14 -13 25 -29 26 -36 1 -28 17 -56 32 -56 13 0 14 -2 3 -12 -10 -11 -19
-5 -47 26 -19 22 -34 45 -34 52 0 7 -9 16 -20 19 -11 4 -18 11 -15 16 4 5 -1
9 -9 9 -9 0 -16 2 -16 4 0 2 -3 11 -6 19 -9 24 29 27 46 3 8 -12 26 -32 40
-44z m133 -2 c3 -11 1 -20 -4 -20 -5 0 -9 2 -9 4 0 2 -3 11 -6 20 -3 9 -2 16
4 16 5 0 12 -9 15 -20z m-251 -72 c6 -17 -3 -58 -12 -58 -9 0 -18 41 -12 58 2
7 7 12 12 12 5 0 10 -5 12 -12z m428 -58 c0 -12 -28 -25 -36 -17 -9 9 6 27 22
27 8 0 14 -5 14 -10z m-166 -25 c31 21 41 15 44 -24 2 -26 -1 -31 -21 -31 -13
0 -28 -5 -34 -11 -18 -18 -40 -4 -45 28 -3 15 -9 37 -13 48 -7 18 -6 18 17 -3
25 -23 27 -23 52 -7z m1 15 c-3 -5 -10 -10 -16 -10 -5 0 -9 5 -9 10 0 6 7 10
16 10 8 0 12 -4 9 -10z m-235 -26 c0 -8 -4 -12 -10 -9 -5 3 -10 10 -10 16 0 5
5 9 10 9 6 0 10 -7 10 -16z m25 -4 c3 -5 1 -10 -4 -10 -6 0 -11 5 -11 10 0 6
2 10 4 10 3 0 8 -4 11 -10z m68 -63 c18 -7 24 -61 7 -72 -25 -15 -62 9 -81 52
-24 55 -24 56 1 48 13 -4 20 -2 20 6 0 7 8 3 18 -8 9 -11 25 -22 35 -26z"/>
<path d="M3160 633 c0 -30 58 -163 71 -163 14 0 10 47 -6 87 -8 19 -15 44 -15
54 0 19 -25 49 -41 49 -5 0 -9 -12 -9 -27z"/>
<path d="M5830 645 c-116 -33 -259 -108 -352 -186 -53 -45 -106 -70 -158 -76
-91 -11 -318 -110 -436 -190 -32 -23 -81 -63 -107 -91 -41 -41 -47 -53 -41
-75 l6 -27 110 0 c100 0 113 2 154 26 46 27 51 26 34 -7 -10 -17 -7 -19 23
-19 25 0 39 6 50 23 30 45 69 76 151 116 46 22 88 41 95 41 6 0 11 -13 11 -29
0 -36 -41 -80 -114 -121 -28 -17 -44 -30 -35 -30 8 0 44 17 80 39 65 40 109
98 109 145 0 17 15 29 64 53 63 31 64 32 112 17 61 -19 122 -13 202 20 53 21
72 24 136 19 72 -6 74 -5 92 22 17 27 17 28 -1 41 -10 8 -25 14 -32 14 -8 0
-4 13 12 36 35 51 31 85 -17 175 -47 88 -54 91 -148 64z m85 -52 c13 -31 13
-33 -6 -30 -10 2 -25 9 -31 15 -13 13 -54 -8 -257 -130 -87 -53 -116 -66 -122
-56 -25 39 0 74 95 133 93 57 218 105 269 102 33 -2 41 -7 52 -34z m49 -86
c32 -46 33 -83 4 -114 -18 -19 -31 -23 -82 -22 -34 1 -73 4 -89 8 -25 6 -22 9
49 45 77 39 95 59 76 78 -7 7 -7 16 1 29 6 10 12 17 14 16 1 -1 13 -19 27 -40z
m-646 -173 c24 -17 29 -39 10 -47 -7 -2 -120 -48 -252 -101 -131 -53 -241 -95
-243 -92 -15 15 12 59 53 86 95 66 327 165 394 169 9 1 26 -6 38 -15z m122 6
c-20 -13 -33 -13 -25 0 3 6 14 10 23 10 15 0 15 -2 2 -10z m363 -20 c4 -16 -4
-23 -49 -40 -66 -24 -112 -26 -143 -4 l-24 17 24 13 c16 8 47 10 96 7 63 -5
73 -4 73 11 0 22 17 20 23 -4z m-488 -56 c-26 -20 -55 -36 -55 -30 0 5 63 46
70 46 3 -1 -4 -8 -15 -16z m-65 -38 c0 -2 -35 -27 -77 -56 -43 -28 -64 -40
-48 -25 25 22 115 84 123 85 1 0 2 -2 2 -4z"/>
<path d="M8713 413 c-4 -9 1 -21 10 -28 23 -16 21 -25 -3 -25 -12 0 -39 -17
-61 -38 l-41 -38 39 -26 39 -26 14 22 c76 120 73 112 55 139 -21 32 -44 41
-52 20z"/>
<path d="M8618 369 c-26 -28 -48 -55 -48 -59 0 -15 33 -20 48 -8 17 15 72 98
72 110 0 20 -28 4 -72 -43z"/>
<path d="M11030 300 c0 -11 2 -20 4 -20 2 0 6 9 9 20 3 11 1 20 -4 20 -5 0 -9
-9 -9 -20z"/>
<path d="M8420 240 c0 -5 -6 -7 -14 -4 -19 7 -93 -26 -133 -60 -35 -30 -83
-118 -83 -153 l0 -23 271 0 271 0 -7 37 c-17 91 -90 172 -179 198 -56 17 -126
20 -126 5z"/>
<path d="M3350 137 c0 -3 12 -12 26 -22 15 -9 23 -12 20 -6 -7 11 -46 35 -46
28z"/>
<path d="M2539 63 c-27 -8 -52 -25 -58 -37 -7 -12 -10 -14 -7 -3 7 22 -2 21
-39 -3 l-30 -20 49 0 c37 0 61 8 105 34 31 18 63 36 71 39 37 13 -50 4 -91
-10z"/>
<path d="M2565 15 c-29 -13 -28 -14 32 -13 61 1 94 11 80 24 -3 4 -13 1 -22
-6 -12 -10 -15 -10 -15 1 0 10 -3 10 -12 1 -15 -15 -32 -16 -23 -2 8 13 -4 12
-40 -5z"/>
</g>
</svg>
